<?xml version="1.0" encoding="utf-8"?>
<!-- Generator: Adobe Illustrator 16.0.0, SVG Export Plug-In . SVG Version: 6.00 Build 0)  -->
<!DOCTYPE svg PUBLIC "-//W3C//DTD SVG 1.1//EN" "http://www.w3.org/Graphics/SVG/1.1/DTD/svg11.dtd">
<svg version="1.1" xmlns="http://www.w3.org/2000/svg" xmlns:xlink="http://www.w3.org/1999/xlink" x="0px" y="0px" width="600px"
	 height="600px" viewBox="0 0 600 600" enable-background="new 0 0 600 600" xml:space="preserve">
<g id="Capa_1">
</g>
<g id="Capa_2">
	<path fill="#FFFFFF" d="M384.989,496.246c-1.392,0-2.772-0.208-4.105-0.617c-14.245-4.366-31.04-9.951-47.586-18.256
		c-18.563-9.046-36.084-20.299-52.083-33.451c-1.851,0.868-3.887,1.329-5.955,1.329c-3.443,0-6.754-1.264-9.323-3.558
		c-34.84-31.114-56.447-76.636-59.471-125.159c-3.167-2.574-5.104-6.456-5.178-10.584c-0.344-19.292,1.438-38.488,5.3-57.127
		c-8.27-1.045-16.525-2.098-24.777-3.151c-12.583-1.605-25.16-3.21-37.768-4.782c-12.919-1.601-26.047-3.302-38.743-4.947
		c-20.231-2.621-20.043-5.319-40.517-7.683c-7.202-0.832-12.529-6.925-12.392-14.173c0.138-7.249,5.692-13.136,12.921-13.693
		c2.041-0.158,3.979-0.232,5.854-0.305c0.172-0.006,0.441-0.013,0.612-0.013H174.15c-1.43-1.647-2.746-3.248-3.986-4.845
		c-0.167-0.213-0.332-0.439-0.49-0.67c-1.135-1.654-1.967-3.425-2.485-5.279c-1.667-1.394-3.037-3.099-4.085-5.086
		c-0.111-0.21-0.217-0.424-0.317-0.641c-3.983-8.579-5.969-16.46-6.067-24.094c-0.281-11.005,7.197-23.104,20.198-24.217
		c11.619-1,23.245-2.035,34.87-3.07c11.122-0.99,22.246-1.98,33.368-2.94c13.385-9.228,31.31-20.22,52.521-25.121
		c1.031-0.238,2.092-0.359,3.152-0.359c1.2,0,2.397,0.155,3.557,0.459c9.406,2.47,19.188,4.667,28.649,6.792
		c4.111,0.923,8.195,1.84,12.268,2.782c0.686,0.158,1.368,0.371,2.025,0.633c3.911,1.557,7.729,3.246,11.42,4.88
		c3.274,1.449,6.646,2.941,9.924,4.266c1.35,0.553,2.62,1.089,3.889,1.625l0.112,0.047c4.837,2.044,9.405,3.974,13.839,4.984
		l0.299,0.072c6.293,1.582,12.637,2.857,19.354,4.209c5.773,1.161,11.737,2.361,17.691,3.777c6.126,1.264,10.956,4.352,14.486,6.608
		l0.085,0.054c0.696,0.445,1.393,0.891,2.097,1.316c0.156,0.094,0.313,0.193,0.47,0.296c9.332,6.153,19.246,12.785,28.871,20.275
		c7.002,5.255,9.822,12.448,11.881,17.7c0.756,1.925,1.601,4.078,2.354,5.188l2.032,1.555c11.827,9.034,24.061,18.377,34.478,30.324
		c0.251,0.289,0.489,0.585,0.716,0.892c5.092,6.902,12.683,12.509,20.028,17.929c5.908,4.124,9.942,9.228,13.503,13.732
		c0.589,0.745,1.162,1.47,1.74,2.186c0.1,0.124,0.191,0.241,0.281,0.359c0.544,0.72,1.087,1.425,1.633,2.132
		c2.981,3.867,6.36,8.25,8.848,13.69c1.859,4.065,1.655,8.816-0.544,12.708c-2.413,4.271-4.788,8.682-7.084,12.947
		c-1.886,3.501-3.835,7.12-5.819,10.693c-3.345,6.713-8.731,10.976-12.669,14.091l-1.096,0.87
		c-3.912,3.127-8.088,5.405-11.772,7.416l-0.73,0.399c-1.068,1.214-2.136,2.45-3.245,3.733c-4.558,5.275-9.271,10.73-14.921,15.752
		c-0.26,0.23-0.528,0.453-0.806,0.664c-2.89,2.207-6.065,4.294-9.859,6.474c0.252,3.559,0.177,8.42-2.321,13.407
		c-3.501,7.304-8.446,13.174-12.998,17.996c-0.486,6.273-3.09,11.897-7.426,15.97c-4.106,3.912-8.693,5.264-11.729,6.157
		c-0.248,0.073-0.698,0.206-1.073,0.323c-6.151,5.611-13.355,12-21.353,17.358c-0.176,0.117-0.346,0.226-0.519,0.33l-0.537,0.329
		c-3.56,2.18-8.938,5.474-16.023,5.474c-0.957,0-1.918-0.063-2.857-0.185c-24.682-2.11-44.341-7.987-59.934-17.934
		c2.761,13.908,9.568,27.984,19.825,40.926c0.071,0.089,0.156,0.198,0.239,0.31c2.36,3.149,5.42,6.205,8.659,9.439
		c1.459,1.456,2.899,2.895,4.334,4.393c4.408,4.6,5.154,11.603,1.812,17.027C394.381,493.694,389.813,496.246,384.989,496.246z
		 M457.183,326.507c0.018,0.74,0.04,1.479,0.067,2.216c0.414-0.563,0.815-1.116,1.205-1.66
		C458.024,326.877,457.601,326.692,457.183,326.507z"/>
	<path d="M384.989,492.246c-0.975,0-1.961-0.143-2.931-0.44c-14.093-4.32-30.691-9.839-46.966-18.008
		c-19.208-9.36-37.174-21.04-53.524-34.784c-1.826,1.486-4.064,2.237-6.308,2.237c-2.375,0-4.755-0.841-6.659-2.541
		c-34.608-30.906-55.772-76.531-58.253-124.351c-3.024-1.716-4.997-4.905-5.061-8.48c-0.365-20.5,1.695-40.791,6.133-60.478
		c-9.717-1.223-19.413-2.46-29.104-3.696c-12.587-1.606-25.167-3.211-37.78-4.783c-12.941-1.604-26.164-2.84-38.814-4.956
		C85.75,228.625,85.5,228,65.241,224.288c-5.067-0.929-8.949-4.973-8.851-10.124c0.098-5.15,4.092-9.384,9.229-9.78
		c1.964-0.152,3.863-0.225,5.7-0.296c0.128-0.005,0.33-0.01,0.458-0.01h111.51c-3.456-3.553-6.839-7.273-9.964-11.298
		c-0.121-0.155-0.237-0.314-0.349-0.477c-1.234-1.799-1.908-3.602-2.212-5.328c-1.703-1.158-3.107-2.724-4.121-4.644
		c-0.079-0.15-0.154-0.302-0.226-0.456c-3.742-8.059-5.606-15.408-5.697-22.464c-0.235-9.224,5.866-19.266,16.54-20.18
		c11.625-1,23.254-2.036,34.883-3.071c11.472-1.021,22.944-2.042,34.416-3.031c13.459-9.337,31.326-20.336,52.02-25.118
		c0.741-0.171,1.497-0.257,2.251-0.257c0.854,0,1.708,0.109,2.54,0.328c9.484,2.491,19.311,4.697,28.813,6.832
		c4.079,0.916,8.155,1.832,12.22,2.771c0.493,0.114,0.977,0.265,1.446,0.452c3.846,1.531,7.633,3.207,11.295,4.828
		c3.296,1.459,6.703,2.967,10.031,4.311c1.354,0.556,2.648,1.103,3.942,1.649c5.005,2.115,9.733,4.112,14.506,5.199
		c0.072,0.017,0.145,0.034,0.217,0.052c6.383,1.604,12.773,2.89,19.54,4.251c5.758,1.158,11.711,2.356,17.611,3.761
		c5.428,1.107,9.73,3.857,13.196,6.072c0.754,0.482,1.507,0.964,2.269,1.424c0.114,0.069,0.227,0.14,0.338,0.213
		c9.264,6.108,19.103,12.689,28.614,20.09c6.148,4.616,8.623,10.927,10.613,16.003c1.027,2.619,2.002,5.104,3.215,6.575l2.464,1.885
		c11.672,8.915,23.742,18.134,33.894,29.776c0.179,0.205,0.349,0.417,0.51,0.636c5.436,7.367,13.299,13.186,20.918,18.807
		c5.449,3.792,9.299,8.664,12.699,12.965c0.588,0.744,1.174,1.486,1.766,2.217c0.07,0.087,0.14,0.176,0.208,0.266
		c0.542,0.718,1.094,1.435,1.648,2.153c2.851,3.697,6.081,7.887,8.377,12.909c1.332,2.913,1.188,6.288-0.389,9.077
		c-2.413,4.271-4.809,8.719-7.124,13.02c-1.896,3.52-3.854,7.158-5.838,10.727c-2.943,5.959-7.742,9.756-11.611,12.817l-1.1,0.873
		c-3.641,2.91-7.657,5.104-11.201,7.037c-0.451,0.247-0.902,0.493-1.352,0.74c-1.231,1.393-2.456,2.81-3.734,4.289
		c-4.475,5.179-9.102,10.533-14.552,15.377c-0.186,0.165-0.377,0.323-0.574,0.474c-3.769,2.879-7.703,5.267-11.652,7.436
		l0.039,0.384c0.334,3.331,0.838,8.349-1.718,13.451c-3.492,7.284-8.616,13.184-13.344,18.104
		c-0.113,5.762-2.291,11.025-6.242,14.736c-3.426,3.264-7.293,4.403-10.121,5.236c-0.696,0.205-1.618,0.477-2.064,0.667
		c-0.102,0.102-0.206,0.201-0.312,0.298c-6.098,5.567-13.264,11.949-21.146,17.23c-0.12,0.08-0.242,0.158-0.366,0.233l-0.552,0.338
		c-3.366,2.062-7.976,4.885-13.935,4.885c-0.811,0-1.623-0.054-2.424-0.162c-25.787-2.194-45.873-8.56-61.392-19.454
		c-0.982,1.101-2.196,1.971-3.548,2.547c2.333,15.64,9.646,31.704,21.263,46.361c0.056,0.069,0.11,0.141,0.164,0.213
		c2.546,3.396,5.71,6.554,9.059,9.897c1.394,1.392,2.835,2.83,4.256,4.313c3.15,3.287,3.683,8.287,1.295,12.163
		C391.648,490.503,388.393,492.246,384.989,492.246z M453.17,325.965c0.093,4.646,0.377,9.152,0.845,13.464
		c3.771-4.679,7.336-9.324,10.553-14.19c-4.236-1.65-8.5-3.509-12.635-5.757C452.653,321.389,453.153,323.566,453.17,325.965z"/>
	<g>
		<path fill="#FFFFFF" d="M416.43,218.707c6.08,0.207,11.816-2.143,17.551-4.008c-1.244,3.523-2.143,7.462-4.975,10.019
			c3.592-1.451,5.182-5.251,7.186-8.36l0.967,2.073c0.07,1.657,0.07,3.316,0.139,4.975c-3.109,4.491-8.016,7.739-13.543,7.877
			C421.75,226.791,419.678,222.3,416.43,218.707L416.43,218.707z M481.381,320.35c6.357,1.865,12.922,3.04,19.555,3.386
			c-5.25,4.561-10.57,9.052-16.029,13.336c-4.975,3.454-10.572,5.804-16.031,8.36c3.662-4.768,7.531-9.466,10.434-14.717
			C480.484,327.397,480.691,323.805,481.381,320.35L481.381,320.35z M481.934,345.362c9.951-6.08,18.588-14.026,27.088-21.973
			c-3.939,4.561-7.809,9.19-12.301,13.197C492.092,339.903,487.117,342.875,481.934,345.362L481.934,345.362z M448.629,374.384
			c7.809-2.971,14.719-7.738,21.766-12.161c-0.898,3.662-3.387,6.564-5.805,9.329c-3.938,4.282-8.221,8.291-12.852,11.814
			c-2.971,0.276-5.596-1.451-8.291-2.487C445.037,378.668,445.727,375.282,448.629,374.384z M474.334,367.129
			c0.621-1.59,2.557-1.865,3.939-2.626c-2.973,5.943-7.879,10.641-12.369,15.478c-0.969,1.105-2.281,1.797-3.801,1.797
			C466.664,377.285,471.432,372.864,474.334,367.129z"/>
		<path d="M251.01,142.216c15.202-10.642,31.578-20.246,49.819-24.461c13.681,3.593,27.569,6.495,41.321,9.674
			c7.117,2.833,14.094,6.219,21.281,9.12c6.564,2.695,12.99,5.735,19.971,7.325c12.367,3.108,25.012,5.112,37.449,8.084
			c4.631,0.898,8.43,3.869,12.438,6.288c9.537,6.288,19.002,12.645,28.055,19.693c7.254,5.389,6.979,15.823,13.127,22.042
			c12.439,9.535,25.223,18.933,35.586,30.817c6.219,8.43,14.719,14.787,23.148,21.006c5.113,3.523,8.705,8.637,12.506,13.336
			c3.18,4.215,6.703,8.36,8.914,13.197c-4.49,7.946-8.707,16.1-13.129,24.046c-2.141,4.491-6.287,7.463-10.086,10.503
			c-3.803,3.04-8.363,5.252-12.646,7.67c-6.08,6.771-11.748,14.027-18.588,20.107c-7.6,5.804-16.445,9.604-24.805,14.165
			c0.068,1.728,0.068,3.455,0.068,5.183c2.971-1.105,6.08-2.211,9.189-3.109c0.277,2.833,0.691,5.873-0.689,8.568
			c-3.455,7.255-9.121,13.128-14.719,18.794c0.828,3.869,0.275,8.361-2.766,11.194c-3.453,3.316-9.119,2.557-12.367,6.08
			c-6.357,5.805-12.852,11.539-19.969,16.307c-3.18,1.936-6.703,4.285-10.572,3.663c-19.832-1.659-40.283-6.081-56.867-17.758
			c5.043-1.521,10.227-2.764,15.34-4.077c-4.906-2.557-10.02-4.561-14.926-7.048c4.146-2.419,9.053-3.87,12.645-7.117
			c-4.561-0.622-9.189,0.276-13.197,2.557c-6.426,3.731-10.711,10.296-12.99,17.274c-2.625-0.276-4.422-3.316-6.84-4.422
			c-0.898,24.184,9.396,47.538,24.184,66.195c4.145,5.528,9.328,10.157,14.096,15.132c-15.547-4.767-30.887-10.088-45.467-17.412
			c-21.281-10.365-40.974-23.7-58.456-39.524c-1.935,2.004-3.869,3.939-5.805,5.942c-36.829-32.89-56.659-82.779-55.07-131.907
			c-1.728,2.072-3.316,4.215-4.906,6.356c-0.414-23.216,2.419-46.434,8.568-68.821c-26.119-3.247-52.031-6.633-78.08-9.881
			c-33.444-4.146-45.875-8.775-79.386-12.645c1.797-0.139,3.593-0.207,5.39-0.276h143.371c1.313,0.276,2.28-0.553,3.04-1.521
			c-3.801,0.346-7.946,1.936-11.54,0.069c-2.487-1.521-1.865-4.768-0.829-6.979c-2.557,0.276-5.734,1.243-7.738-0.968
			c-5.873-5.735-11.815-11.539-16.859-18.034c-1.659-2.419,0.276-5.32,1.105-7.67c-2.212,0.138-5.528,1.175-6.841-1.313
			c-2.695-5.805-4.699-12.023-4.769-18.449c-0.138-4.423,2.557-9.605,7.395-10.02c23.285-2.004,46.571-4.146,69.857-6.149
			C248.937,142.837,250.111,142.906,251.01,142.216z M270.012,136.342c-2.764,1.728-5.873,3.109-8.292,5.459
			c4.699-0.483,9.467-1.105,14.234-0.76c1.382,0.069,2.35,1.105,3.248,2.072c-4.492,3.316-10.365,2.833-15.547,3.455
			c-27.985,2.487-55.97,5.252-84.023,7.808c-2.211-0.207-3.593,1.936-3.662,3.939c-0.346,5.39,1.589,10.641,3.455,15.616
			c2.487-0.139,5.527-1.037,7.601,0.897c2.694,2.695-0.139,6.357-1.244,9.19c4.837,6.012,10.365,11.471,15.893,16.859
			c2.764-0.207,5.873-1.313,8.43,0.346c2.419,1.935,1.037,5.32,0,7.67c3.524-0.207,7.739-1.382,10.779,0.968
			c1.451,1.175,0.553,2.902,0.139,4.284c28.123-0.207,56.245,0.138,84.299-0.139c-16.721-8.292-33.581-16.376-50.579-24.322
			c-1.313,2.695-2.833,5.252-4.146,7.946c-0.622-5.735,0.898-11.401,2.833-16.722c-10.779-0.414-21.352-2.694-31.785-5.32
			c-2.902-0.761-5.805-1.797-8.775-2.004c-2.972-1.313-6.15-2.211-9.329-2.626c-1.313-0.276-3.247,0.483-3.592-1.521
			c-0.968,1.244-1.936,1.383-2.902,0.484v-1.175l-1.728-0.484l-0.622,0.898c-0.553-1.52-2.487-0.207-3.662-0.414
			c2.142-2.557,4.906-4.491,8.084-5.527c10.71,3.73,21.628,6.771,32.684,9.259c7.808,1.589,15.686,3.179,23.701,2.833
			c2.901-6.703,6.148-13.405,10.71-19.071c-2.212,11.401-6.288,22.388-11.125,32.891c57.56,1.658,115.048,3.179,172.536,4.768
			c-4.283-4.008-8.844-7.67-12.99-11.815c6.15,4.215,12.023,8.706,18.104,12.99c3.316,2.143,3.869,6.356,5.045,9.881
			c3.592-4.768,1.451-10.641,0.898-15.962c1.381,3.524,2.418,7.256,2.971,10.987c0.068,3.109-1.658,5.873-2.143,8.913
			c0.416,1.797,1.176,3.524,1.59,5.32c3.73,1.383,7.809,1.659,11.746,2.005c-5.113,1.658-10.57,3.108-16.031,2.279l-0.967-2.072
			c-1.934,3.04-3.523,6.909-7.186,8.36c2.902-2.626,3.73-6.564,4.975-10.088c-5.666,1.865-11.4,4.215-17.551,4.008
			c3.318,3.593,5.32,8.153,7.188,12.575c5.596-0.068,10.434-3.386,13.541-7.877c1.867,2.694,3.801,5.459,5.666,8.153
			c-1.727-0.829-3.385-1.728-5.113-2.487c-3.039,3.179-7.047,5.252-11.4,5.942c-2.902,0.553-5.805-0.276-8.637-0.346
			c-4.836-0.553-9.813-1.52-14.648-1.174c-6.357-0.484-12.783-0.761-19.141-1.106c-5.182-0.414-10.434-0.621-15.615-0.829
			c2.004,1.936,4.145,3.801,6.357,5.459c8.568,7.255,17.066,14.58,25.703,21.766c-2.211,0.622-4.492-0.069-6.703-0.276
			c-55.209-7.117-110.417-13.889-165.558-21.213c-4.561,17.551-7.186,35.585-7.808,53.758c2.072-2.072,3.662-4.491,5.597-6.771
			c-0.346,8.638-1.175,17.273-0.691,25.911c1.313,42.427,19.071,84.508,49.958,113.805c1.935-2.004,3.869-3.938,5.873-5.873
			c17.759,17.274,38.695,30.955,60.807,42.011c2.279,1.244,4.629,2.212,7.049,2.972c5.734,3.109,11.883,5.32,17.963,7.532
			c-11.469-14.58-20.383-31.509-23.906-49.82c-2.072-10.02-1.797-20.314-0.623-30.403c2.627,2.695,5.805,4.699,8.707,7.049
			c4.285-8.016,11.539-14.926,20.66-16.86c-5.32-3.594-10.779-6.841-16.445-9.812c-3.869-2.004-7.807-4.146-12.092-5.113
			c2.971,5.874,7.463,10.778,10.85,16.444c-16.102-11.262-33.377-21.005-51.686-28.191c-3.524-1.313-6.979-2.971-10.711-3.455
			c-5.527-2.349-11.539-3.247-17.412-4.561c5.942-0.483,11.815,0.691,17.688,1.728c16.03,3.524,31.302,10.02,45.604,18.035
			c0.139-1.52,0-3.248,1.313-4.284c2.35-2.35,5.873-1.105,8.568-0.207c7.947,2.972,15.201,7.531,22.457,11.815
			c-6.979-9.674-15.754-17.966-24.805-25.636c8.705,3.594,16.443,9.397,23.354,15.755c7.809,7.117,14.166,15.754,18.727,25.29
			c-2.211,1.865-5.666,2.349-7.395,4.491c3.732,1.935,7.809,3.386,11.125,6.08c1.658,1.175,1.313,4.354-0.828,4.699
			c-2.973,0.829-6.014,1.244-8.984,2.073c1.037,0.898,2.281,1.589,3.594,2.072c12.99,5.182,26.947,7.877,40.906,8.706
			c3.453-0.76,6.219-3.179,9.051-5.183c6.15-4.353,11.678-9.466,17.275-14.51c2.971-2.902,7.6-2.695,11.055-4.906
			c1.383-1.175,1.313-3.109,1.797-4.698c-2.279,0-4.561-0.554-6.564-1.659c-2.143,1.451-4.008,4.354-6.91,3.594
			c-4.836-0.553-9.121-2.902-13.197-5.32c0-0.691-0.068-2.005-0.068-2.695c0.967-2.626,2.557-4.976,3.523-7.601
			c-5.734-3.108-12.23-5.666-16.377-10.986c0.83-2.28,1.521-4.63,2.143-6.979c-2.832-1.521-5.666-3.18-8.361-4.976
			c0.969-1.935,1.729-4.008,2.213-6.15c-1.729-0.967-3.387-2.072-5.045-3.179c0.76,6.565-0.07,13.959,3.938,19.693
			c4.008,6.703,8.361,13.336,14.441,18.38c-4.422-2.073-7.668-5.941-11.539-8.774c3.248,5.941,6.771,11.884,11.4,16.859
			c-1.105-0.346-2.211-0.691-3.316-0.968c-3.453-2.694-7.115-5.39-9.742-8.982c-9.535-11.746-12.367-27.501-11.814-42.287
			c0.621-9.536,1.727-19.901,8.223-27.433c5.666-5.942,12.367-10.641,19.139-15.27c0.898-0.554,1.52-1.383,1.729-2.35
			c2.971,0.069,5.873,0.206,8.844,0.206c0.691,0.761,1.383,1.521,2.143,2.212c2.35,5.183,4.492,11.4,10.158,13.819
			c12.574,6.219,26.117,10.779,40.076,12.092c12.367,1.106,23.908-5.251,32.891-13.129c3.799-2.833,5.25-7.462,7.67-11.331
			c-2.42,0.069-4.768-0.139-7.117-0.691c0.207,0.761,0.691,2.28,0.898,3.041c-1.383-1.244-2.627-2.764-3.594-4.354
			c-4.076-7.601-6.84-15.755-9.742-23.839c-0.83-2.211-1.244-4.975-3.525-6.219c-5.252-3.179-10.641-5.942-16.307-8.292
			c-7.186-0.621-14.441-0.068-21.49,1.521c-2.002,0.621-4.283,1.105-5.527,2.971c-2.693,3.455-5.252,7.049-8.43,10.089
			c2.281-4.146,4.699-8.292,7.324-12.23c3.662-3.731,9.26-4.008,13.959-5.459c5.527-2.28,11.055-4.561,16.65-6.702
			c-1.449-0.761-2.9-1.658-4.559-1.866c-9.535-0.138-18.865,2.28-28.191,3.731c7.186-2.626,14.51-4.906,22.111-6.012
			c-1.451-1.036-3.109-1.658-4.906-1.796c-6.635-0.761-13.268-1.521-19.971-1.313c6.842-2.072,14.166-2.003,21.283-1.727
			c6.496,1.243,12.576,4.007,18.588,6.702c1.727,0.69,3.592,0.553,5.457,0.76c-1.244-1.313-2.555-2.557-3.938-3.801
			c-9.813-0.69-19.07-4.767-27.363-9.949c-7.049-2.626-14.717-0.139-21.973,0.276c6.633-2.073,13.475-4.354,20.521-4.008
			c2.557-0.069,4.561,1.728,6.635,2.902c5.941,3.455,12.506,6.149,19.346,7.048c-8.084-9.604-18.102-17.344-27.914-25.014
			c-3.869-3.179-8.5-5.597-11.057-10.088c-0.207,2.142-0.414,4.353-0.828,6.495c-0.969,1.796-2.557,3.109-3.939,4.561
			c2.35-6.012,0.83-12.507,0.416-18.726c-0.07-4.008-2.004-7.67-5.184-10.089c-8.223-6.356-16.859-12.161-25.428-17.896
			c-4.215-2.625-8.291-5.873-13.266-6.84c-6.635-1.451-13.268-2.972-20.039-4.146c-19.9-3.247-39.871-6.564-59.287-11.953
			c9.951,0.829,19.762,3.178,29.713,4.076c-5.32-2.626-10.918-4.63-16.377-7.048c-5.043-1.935-9.742-4.837-15.063-6.012
			c-12.438-2.626-24.736-5.734-37.105-8.36C289.774,125.632,279.686,130.883,270.012,136.342L270.012,136.342z M279.271,195.145
			l2.695,1.521c15.755,7.531,31.438,15.063,47.124,22.732H135.547c-1.865,0-3.662,0.139-5.527,0.276
			c84.576,10.642,169.152,21.628,253.727,32.2c-9.604-8.361-19.555-16.445-29.09-24.876c21.213,1.106,42.426,1.797,63.57,3.524
			c-1.383-4.146-2.627-8.638-5.598-11.954c-3.455-1.175-7.117-1.796-10.502-3.316c6.979-1.521,14.373-0.829,21.145-3.386
			c3.799-1.382,7.531-2.833,11.469-3.938c-0.346-2.972-0.898-5.874-1.797-8.706C381.742,197.908,330.471,196.526,279.271,195.145
			L279.271,195.145z M505.15,246.208c-3.453,1.313-7.047,2.004-10.293,3.523c2.764,0.208,5.803-0.553,8.359,0.898
			c6.357,3.248,13.059,6.219,18.518,10.986c-0.828-4.422-3.109-8.291-5.32-12.092c6.98,5.458,8.223,14.855,9.881,23.01
			c4.215-0.139,8.43-0.208,12.645,0c2.902,2.556,5.529,5.458,8.775,7.601c0.209-0.415,0.623-1.313,0.83-1.728
			c-1.521-3.386-4.215-6.081-6.287-9.052c-3.664-4.561-6.98-9.536-11.816-12.922c-4.354-3.247-8.637-6.702-13.061-9.812
			C513.373,245.447,509.021,244.48,505.15,246.208L505.15,246.208z M526.502,274.606c1.105,5.805,4.631,10.711,6.566,16.238
			c2.832,0.69,6.908,2.418,8.98-0.484c-2.418,0.069-4.906,0.208-7.393,0.277c-1.727-4.423-3.73-8.914-4.283-13.682
			c2.418-0.139,4.904-0.139,7.393,0.069c2.004,2.971,4.836,6.564,8.844,6.08c-2.557-3.247-6.08-5.597-8.914-8.568
			C534.035,274.469,530.234,274.537,526.502,274.606L526.502,274.606z M427.348,306.944c4.352,3.386,8.359,7.117,12.092,11.194
			c1.934,2.211,3.73,4.837,3.73,7.946c0.139,7.048,0.691,14.164,1.797,21.144c1.037,6.979,2.35,14.096,5.527,20.453
			c8.846-4.146,16.723-9.95,24.738-15.409c0.414-1.451,0.828-2.971,1.244-4.422c-8.225,4.008-16.791,7.117-25.221,10.71
			c7.877-9.674,16.1-19.071,22.801-29.573c1.314-3.179,1.314-6.772,2.074-10.158c-7.463-2.626-14.926-5.39-21.766-9.467
			c-5.391-3.247-7.395-9.535-10.09-14.855l-0.689-0.207C437.918,298.169,432.668,302.66,427.348,306.944z M416.223,333.34
			c2.418,4.214,7.256,6.218,11.471,8.291c-0.83,2.212-1.658,4.423-2.418,6.634c2.418,1.451,4.904,2.902,7.393,4.354
			c-0.346,2.972-0.898,5.942-1.729,8.775c4.631,2.972,9.398,5.666,14.373,8.085c-5.182-11.608-6.426-24.53-7.324-37.105
			c-0.414-3.109,0.553-6.703-1.52-9.329c-3.594-4.768-8.432-8.499-12.99-12.3C417.813,316.688,416.775,325.463,416.223,333.34z
			 M481.381,320.35c-0.689,3.455-0.896,6.979-2.072,10.296c-2.902,5.251-6.701,10.019-10.434,14.717
			c5.459-2.626,11.057-4.906,16.031-8.36c5.527-4.215,10.779-8.775,16.029-13.336C494.373,323.39,487.809,322.215,481.381,320.35
			L481.381,320.35z M481.934,345.362c5.184-2.487,10.09-5.39,14.719-8.775c4.561-3.938,8.43-8.637,12.299-13.197
			C500.521,331.336,491.885,339.282,481.934,345.362L481.934,345.362z M448.629,374.384c-2.902,0.898-3.592,4.284-5.182,6.495
			c2.695,1.036,5.32,2.764,8.291,2.487c4.631-3.523,8.914-7.532,12.852-11.814c2.418-2.765,4.906-5.667,5.805-9.329
			C463.416,366.646,456.438,371.413,448.629,374.384z M474.334,367.129c-2.902,5.735-7.67,10.156-12.16,14.648
			c1.449-0.069,2.832-0.691,3.799-1.797c4.49-4.837,9.328-9.534,12.369-15.478C476.891,365.264,474.955,365.539,474.334,367.129
			L474.334,367.129z"/>
		<path d="M451.324,241.025c1.59,2.072,1.936,4.906,1.59,7.463c-1.59,3.523-4.631,6.218-8.293,7.462
			c1.105-4.076,4.146-7.186,5.252-11.193C450.287,243.443,450.771,242.2,451.324,241.025L451.324,241.025z"/>
		<path d="M454.572,245.517c1.451,3.04,2.418,6.495,1.936,9.95c-3.041,4.561-7.947,8.499-13.613,8.982
			c3.316-3.523,6.84-6.91,9.949-10.571C453.605,251.113,453.813,248.28,454.572,245.517z M449.045,269.908
			c6.287,0.829,12.506,2.004,18.725,3.454c3.594-0.621,7.117-1.381,10.709-1.657c2.281,1.313,4.355,3.04,6.082,4.975
			c-2.074-0.968-4.076-2.004-6.082-3.041c-1.588,0.346-3.178,0.622-4.697,0.968c2.557,1.451,5.527,1.728,8.223,2.764
			c10.156,3.387,20.246,6.842,29.85,11.679c-13.75-4.63-27.293-10.02-41.391-13.544c-4.766,0.553-9.395,2.143-14.232,1.865
			c3.041-1.174,6.219-2.142,9.328-3.247C460.1,272.326,454.434,271.498,449.045,269.908z M491.332,272.326
			c9.051,2.35,17.826,7.601,23.078,15.479C507.984,281.033,499.623,276.541,491.332,272.326z"/>
		<path d="M407.309,277.924c15.824-0.415,31.51,2.003,47.193,3.386c2.695-0.622,5.184-1.866,7.809-2.765L458.926,282
			c18.033,2.419,36.137,5.113,53.826,9.329c-18.311-3.11-36.621-5.735-55-8.224c-2.834,2.212-5.529,4.63-8.225,6.979l-1.313-1.244
			c-2.143,1.383-4.768,0.968-7.186,0.968c0.207-0.346,0.689-1.106,0.896-1.521c3.387-2.143,6.98-3.869,10.436-5.873
			C437.436,280.48,422.441,278.891,407.309,277.924L407.309,277.924z M458.926,297.133c17.826-2.004,35.793-1.521,53.688-0.276
			c-3.801,0.483-7.6,0.207-11.332,0.276H458.926z M411.178,379.082c3.525,3.248,6.842,6.771,9.883,10.503
			c0.76,1.105,2.072,1.451,3.316,1.797c6.426,1.658,12.92,3.179,19.623,3.04c-6.771,4.492-15.617,3.939-23.01,1.451
			c-2.832-0.76-4.076-3.731-5.459-6.012C413.666,386.407,412.215,382.813,411.178,379.082z"/>
		<path fill="#00ACD2" d="M532.998,293.125c0.207,0.76,0.691,2.28,0.898,3.041c-1.381-1.244-2.625-2.765-3.594-4.354
			c-4.076-7.601-6.84-15.755-9.742-23.839c-0.83-2.28-1.174-4.976-3.523-6.219c-5.184-3.179-10.643-5.942-16.309-8.292
			c-7.186-0.553-14.439-0.069-21.488,1.52c-2.004,0.622-4.285,1.106-5.527,2.972c-2.695,3.455-5.252,7.048-8.432,10.089
			c2.281-4.146,4.699-8.292,7.326-12.23c3.66-3.731,9.258-4.008,13.957-5.459c5.527-2.28,11.057-4.561,16.652-6.702
			c-1.451-0.761-2.902-1.659-4.561-1.866c-9.535-0.207-18.863,2.28-28.193,3.731c7.188-2.626,14.512-4.906,22.113-6.012
			c-1.451-0.968-3.109-1.658-4.906-1.797c-6.633-0.829-13.268-1.52-19.971-1.313c6.91-2.072,14.166-2.003,21.283-1.728
			c6.496,1.244,12.576,4.008,18.588,6.703c1.727,0.69,3.592,0.553,5.459,0.76c-1.244-1.313-2.557-2.557-3.939-3.801
			c-9.881-0.622-19.07-4.767-27.363-9.949c-7.117-2.626-14.717-0.139-21.973,0.275c6.633-2.072,13.475-4.353,20.521-4.007
			c2.559-0.139,4.492,1.728,6.635,2.901c5.941,3.455,12.506,6.081,19.348,7.049c-8.084-9.605-18.035-17.344-27.916-25.014
			c-3.871-3.179-8.5-5.666-11.057-10.088c-0.207,2.21-0.346,4.353-0.83,6.494c-0.967,1.797-2.555,3.11-3.938,4.562
			c2.35-6.013,0.83-12.507,0.416-18.727c-0.139-4.008-2.074-7.739-5.32-10.088c-8.154-6.288-16.793-12.093-25.43-17.896
			c-4.215-2.625-8.291-5.804-13.266-6.841c-6.703-1.451-13.336-2.971-20.039-4.146c-19.9-3.248-39.869-6.564-59.285-11.954
			c9.949,0.898,19.762,3.179,29.711,4.077c-5.389-2.626-10.986-4.561-16.375-7.048c-5.113-1.936-9.744-4.837-15.064-6.012
			c-12.438-2.557-24.736-5.735-37.104-8.36c-10.986,2.072-21.075,7.323-30.749,12.782h0.001c-2.834,1.728-5.874,3.109-8.293,4.906
			c4.699-0.483,9.467-1.175,14.234-0.76c1.382,0.068,2.35,1.175,3.248,2.073c-4.423,3.247-10.296,2.832-15.547,3.454
			c-28.054,2.487-56.039,5.251-84.023,7.809c-2.211-0.208-3.593,1.935-3.662,3.938c-0.276,5.39,1.59,10.641,3.524,15.616
			c2.487-0.139,5.527-1.037,7.601,0.897c2.626,2.695-0.208,6.357-1.244,9.19c4.837,6.012,10.365,11.471,15.893,16.859
			c2.764-0.207,5.942-1.313,8.43,0.346c2.35,1.935,0.968,5.321,0,7.67c3.594-0.138,7.739-1.382,10.779,1.037
			c1.451,1.105,0.553,2.833,0.139,4.284c28.054-0.139,56.176,0.138,84.3-0.139c-16.791-8.292-33.651-16.445-50.58-24.322
			c-1.301,2.669-2.804,5.271-4.107,7.873c-0.487-5.569,0.983-11.065,2.863-16.233c-10.779-0.415-21.351-2.695-31.785-5.321
			c-2.521-0.66-4.992-1.529-7.592-1.881c-0.394-0.159-0.791-0.304-1.183-0.469c-2.972-1.382-6.081-2.211-9.329-2.626
			c-1.313-0.276-3.247,0.484-3.593-1.52c-0.967,1.243-1.935,1.382-2.902,0.483v-1.175l-1.728-0.483l-0.621,0.898
			c-0.553-1.59-2.488-0.207-3.662-0.415c2.142-2.557,4.905-4.491,8.084-5.527c10.71,3.662,21.628,6.771,32.684,9.259
			c7.808,1.59,15.685,3.179,23.7,2.833c2.902-6.634,6.149-13.336,10.71-19.071c-2.211,11.401-6.288,22.389-11.124,32.891
			l172.536,4.769c-4.283-4.008-8.844-7.67-12.99-11.816c6.15,4.215,12.023,8.707,18.104,12.991c3.316,2.211,3.869,6.426,5.045,9.881
			c3.592-4.699,1.451-10.642,0.898-15.962c1.381,3.524,2.418,7.187,2.971,10.986c0.068,3.109-1.658,5.873-2.143,8.914
			c0.416,1.796,1.174,3.523,1.59,5.32c3.73,1.382,7.738,1.658,11.746,2.004c-5.182,1.658-10.572,3.109-16.031,2.28
			c0.139,1.658,0.139,3.316,0.139,4.975c1.865,2.695,3.801,5.459,5.666,8.154c-1.727-0.829-3.385-1.728-5.113-2.488
			c-3.041,3.179-7.049,5.252-11.4,5.943c-2.832,0.553-5.734-0.276-8.637-0.346c-0.825-0.023-1.646-0.014-2.468-0.011
			c-4.035-0.511-8.108-1.175-12.183-0.888c-1.865,0.622-3.869,0.898-5.873,0.898c-6.908,0-13.889-0.484-20.799-0.553
			c-2.072-0.069-4.283,0.068-6.01-1.244c4.49-0.414,8.982-0.069,13.543-0.139c-5.184-0.345-10.436-0.621-15.617-0.829
			c2.074,1.936,4.215,3.801,6.357,5.39c0.099-0.009,0.197-0.015,0.296-0.023c8.403,7.238,16.87,14.41,25.407,21.513
			c0.209,0.346,0.555,0.898,0.762,1.175c-0.098-0.013-0.196-0.021-0.294-0.033c-0.166-0.268-0.341-0.559-0.468-0.727
			c-2.211,0.553-4.49-0.139-6.701-0.276c-55.141-7.117-111.168-14.071-166.309-21.326c-5.5,14.887-9.066,37.254-7.5,54.25
			c2.143-2.072,4.029-4.702,5.688-6.844c-0.276,8.637-0.72,17.137-0.547,25.674C225.75,352.75,243,395,274.849,424.134
			c1.935-2.004,3.869-3.938,5.873-5.873c17.759,17.275,38.694,30.956,60.806,42.012c2.211,1.243,18.557,9.061,25.473,10.603
			c-11.4-14.58-20.773-32.092-24.297-50.403c-2.004-10.02-1.752-19.727-0.578-29.815c2.406,2.938,5.816,4.782,8.719,7.063
			c4.283-8.016,11.807-15.182,20.93-17.116c-5.32-3.594-10.781-6.841-16.445-9.812c-3.939-2.004-8.46-4.198-12.745-5.166
			c3.041,5.874,7.28,10.32,10.667,15.917c-16.1-11.262-32.541-20.425-50.852-27.611c-3.415-1.298-6.832-2.996-10.582-3.436
			c-0.173-0.123-0.353-0.234-0.522-0.364c-5.527-2.35-11.608-3.248-17.412-4.561c5.942-0.484,11.885,0.69,17.688,1.728
			c16.1,3.454,31.403,10.562,45.638,18.577c0.068-1.451,0.313-3.63,1.625-4.667c2.042-2.021,5.409-0.919,8.104-0.021
			c8.068,4.222,15.496,7.842,22.75,12.125c-6.979-9.673-14.982-17.847-24.104-25.516c8.958,4.542,15.465,8.977,22.375,15.333
			c7.807,7.117,18.701,25.247,18.792,25.329c-2.213,1.833-5.951,2.442-7.667,4.5c3.732,1.936,8.309,3.639,11.625,6.333
			c1.625,1.456,0.583,3.497-0.693,4.183c-2.971,0.829-7.168,1.516-10.141,2.275c1.037,0.898,3.438,2.079,4.75,2.563
			c12.99,5.182,27.043,7.671,41,8.5c3.453-0.761,6.125-3.665,8.957-5.669c4.262-2.487,11.445-9.443,17.043-14.487
			c4.641-3.078,7.738-2.382,11.125-4.594c1.451-1.175,1.15-3.583,1.633-5.172c-2.279,0-4.559-0.553-6.563-1.658
			c-2.143,1.45-4.008,4.353-6.91,3.593c-4.768-0.483-9.121-2.833-13.197-5.32c-0.07-0.691-0.07-2.004-0.07-2.695
			c-1.174-0.622-2.35-1.175-3.455-1.796c-4.422-2.073-8.235-6.513-12.104-9.346c3.248,5.941,6.563,12.231,11.261,17.207
			c-1.027-0.321-1.35-0.414-2.378-0.68c-3.428-2.737-7.048-5.349-9.649-8.91c-9.535-11.814-12.301-27.5-11.816-42.287
			c0.623-9.535,1.727-19.969,8.223-27.432c5.666-5.942,12.554-10.52,19.257-15.149c0.828-0.553,1.037-0.324,1.313-1.292
			c-1.375-0.042-2.875-0.104-3.897-0.211c-10.709-0.76-21.35,0.898-32.061,0.69c-7.463-0.069-15.002,1.758-22.396,0.583
			c10.918-1.382,22.051-2.241,33.037-2.518c9.674-1.451,19.486,0.346,29.021-1.313c3.385-2.143,6.979-3.87,10.434-5.873
			c-14.994-1.936-30.057-3.594-45.121-4.561c15.754-0.484,31.51,1.935,47.193,3.386c2.695-0.622,5.184-1.866,7.809-2.765
			L458.926,282c18.033,2.487,36.068,5.113,53.826,9.329c-18.311-3.041-36.621-5.735-54.932-8.154
			c-2.834,2.28-5.529,4.63-8.223,6.979c3.799-1.728,7.945-0.622,11.953-0.484c5.113,0.484,10.295,0,15.408,0.69
			c11.678,0.969,23.563,1.244,35.102,3.594c-8.568,0.483-17.135-1.105-25.773-1.382c-5.596,0.068-11.193-1.175-16.791-0.898
			c-6.701,0.208-13.404-0.483-20.107-0.622c0,0.346-0.068,0.968-0.068,1.313c2.35,5.183,4.561,11.4,10.158,13.818
			c12.506,6.22,26.119,10.78,40.076,12.093c12.369,1.175,23.908-5.252,32.891-13.129c3.73-2.833,5.25-7.462,7.67-11.331
			C537.695,293.885,535.348,293.678,532.998,293.125z M244.169,194.938c0.208-2.97,1.863-5.664,2.279-8.563
			c0.022,0.136,0.063,0.263,0.07,0.408c-0.414,2.902-2.073,5.598-2.28,8.568c-0.171,2.119-0.069,4.254,0.284,6.356
			C244.118,199.49,243.988,197.214,244.169,194.938z M420.99,389.517c0.76,1.105,2.072,1.451,3.316,1.796
			c6.426,1.658,12.922,3.179,19.625,3.041c-6.773,4.561-15.617,3.938-23.01,1.451c-2.834-0.761-4.078-3.731-5.459-6.012
			c-1.797-3.387-3.248-6.979-4.285-10.711C414.771,382.33,418.02,385.854,420.99,389.517z M501.281,297.133h-42.287
			c17.758-1.935,35.793-1.521,53.619-0.276C508.883,297.34,505.082,297.063,501.281,297.133z M449.941,244.688
			c0.416-1.244,0.9-2.419,1.383-3.662c1.59,2.072,1.936,4.906,1.658,7.394c-1.588,3.524-4.629,6.219-8.291,7.462
			C445.797,251.874,448.768,248.695,449.941,244.688z M452.844,253.809c0.762-2.695,0.969-5.528,1.729-8.292
			c1.451,3.109,2.488,6.564,1.936,9.881c-3.041,4.561-7.947,8.499-13.613,8.982C446.211,260.856,449.734,257.539,452.844,253.809z
			 M470.395,275.367c-4.768,0.552-9.396,2.211-14.234,1.865c3.111-1.175,6.221-2.143,9.328-3.248
			c-5.389-1.658-11.055-2.418-16.443-4.076c6.287,0.829,12.576,2.004,18.654,3.386c3.594-0.553,7.119-1.382,10.711-1.658
			c2.281,1.313,4.354,3.04,6.082,4.975c-2.074-0.967-4.078-2.004-6.082-3.04c-1.59,0.276-3.178,0.622-4.699,0.967
			c2.488,1.451,5.529,1.797,8.223,2.765c10.158,3.386,20.246,6.841,29.852,11.608C498.035,284.28,484.492,278.891,470.395,275.367z
			 M491.402,272.326c8.98,2.35,17.756,7.601,23.076,15.479C507.984,280.964,499.623,276.541,491.402,272.326z"/>
		<path fill="#00ACD2" d="M370.273,232.596c4.49-0.415,9.051-0.069,13.543-0.139c6.357,0.346,12.781,0.622,19.139,1.106
			c-1.934,0.552-3.869,0.897-5.873,0.897c-6.908-0.068-13.889-0.483-20.799-0.553C374.211,233.701,372,233.908,370.273,232.596z
			 M505.15,246.208c3.871-1.659,8.223-0.761,12.162,0.345c4.492,3.11,8.707,6.564,13.061,9.813
			c4.836,3.386,8.152,8.43,11.814,12.921c2.072,3.04,4.768,5.666,6.289,9.052c-0.209,0.415-0.623,1.313-0.83,1.728
			c-3.178-2.142-5.873-5.044-8.775-7.601c-4.215-0.207-8.43-0.139-12.645,0c-1.658-8.153-2.902-17.551-9.881-23.01
			c2.211,3.801,4.49,7.67,5.32,12.092c-5.459-4.768-12.092-7.738-18.52-10.986c-2.557-1.45-5.596-0.69-8.359-0.897
			C498.104,248.143,501.766,247.451,505.15,246.208L505.15,246.208z"/>
		<path d="M434.533,291.052c-10.709-0.76-21.352,0.899-32.063,0.691c-7.461-0.139-14.855,1.728-22.248,0.553
			c7.777-2.483,21.834-2.35,32.822-2.625v-0.001c9.604-1.521,19.416,0.346,29.02-1.313c2.998,0.455,7.498,0.643,7.498,0.643
			c4.938,0.063,8.051,0.532,12.059,0.67c5.111,0.554,10.295,0,15.408,0.69c11.678,1.037,23.561,1.313,35.102,3.594
			c-8.639,0.483-17.205-1.105-25.773-1.382c-5.598,0.138-11.195-1.105-16.791-0.898c-6.703,0.208-13.178,0.59-19.879,0.451
			c0,0.346-1.75-0.096-1.75,0.25C447.248,291.614,434.533,291.052,434.533,291.052z"/>
		<linearGradient id="SVGID_1_" gradientUnits="userSpaceOnUse" x1="284.9263" y1="184.7314" x2="278.7005" y2="255.9641">
			<stop  offset="0" style="stop-color:#00FFA3"/>
			<stop  offset="0.0697" style="stop-color:#08F6A7"/>
			<stop  offset="0.1816" style="stop-color:#20DFB0"/>
			<stop  offset="0.3217" style="stop-color:#45B8C0"/>
			<stop  offset="0.4844" style="stop-color:#7A83D6"/>
			<stop  offset="0.6642" style="stop-color:#BC40F1"/>
			<stop  offset="0.746" style="stop-color:#DC1FFF"/>
		</linearGradient>
		<path fill="url(#SVGID_1_)" d="M279.271,195.145c51.202,1.313,102.472,2.694,153.673,4.146c0.898,2.833,1.451,5.735,1.797,8.706
			c-3.869,1.106-7.67,2.558-11.469,3.939c-6.771,2.557-14.166,1.865-21.145,3.386c3.385,1.451,7.047,2.072,10.502,3.247
			c2.971,3.316,4.285,7.739,5.598,11.954c-21.145-1.728-42.357-2.418-63.57-3.524c9.604,8.431,19.486,16.445,29.09,24.876
			c-84.574-10.572-169.15-21.559-253.727-32.131c1.796-0.139,3.662-0.207,5.527-0.276H329.09
			c-15.686-7.67-31.438-15.201-47.124-22.733L279.271,195.145z"/>
		<path d="M526.502,274.606c3.732-0.069,7.463-0.138,11.264-0.069c2.902,2.972,6.357,5.321,8.914,8.568
			c-4.008,0.484-6.842-3.109-8.846-6.08c-2.418-0.208-4.904-0.208-7.393-0.069c0.553,4.768,2.557,9.259,4.283,13.682
			c2.418-0.069,4.906-0.208,7.395-0.277c-2.074,2.902-6.15,1.175-8.982,0.484C531.133,285.317,527.607,280.411,526.502,274.606
			L526.502,274.606z"/>
		<path fill="#E3457C" d="M416.223,333.409c0.553-7.877,1.59-16.653,7.256-22.665c4.559,3.801,9.326,7.532,12.99,12.3
			c2.141,2.626,1.105,6.22,1.52,9.329c0.898,12.575,2.143,25.497,7.324,37.105c-4.975-2.35-9.742-5.045-14.373-8.085
			c0.83-2.902,1.383-5.804,1.729-8.775c-2.488-1.382-4.975-2.902-7.393-4.354c0.76-2.211,1.52-4.422,2.418-6.634
			C423.479,339.627,418.641,337.554,416.223,333.409z"/>
	</g>
</g>
</svg>
