<?xml version="1.0" encoding="utf-8"?>
<!-- Generator: Adobe Illustrator 16.0.0, SVG Export Plug-In . SVG Version: 6.00 Build 0)  -->
<!DOCTYPE svg PUBLIC "-//W3C//DTD SVG 1.1//EN" "http://www.w3.org/Graphics/SVG/1.1/DTD/svg11.dtd">
<svg version="1.1" id="Capa_1" xmlns="http://www.w3.org/2000/svg" xmlns:xlink="http://www.w3.org/1999/xlink" x="0px" y="0px"
	 width="1800px" height="1800px" viewBox="0 0 1800 1800" enable-background="new 0 0 1800 1800" xml:space="preserve">
<g>
	
		<linearGradient id="SVGID_1_" gradientUnits="userSpaceOnUse" x1="18.2729" y1="1763.4326" x2="1206.1949" y2="575.5107" gradientTransform="matrix(1 0 0 -1 287.7603 2069.4707)">
		<stop  offset="0" style="stop-color:#D5BBAE"/>
		<stop  offset="1" style="stop-color:#F4CB93"/>
	</linearGradient>
	<path fill="url(#SVGID_1_)" d="M899.98,60.02C436.077,60.02,60,436.094,60,900c0,463.901,376.077,839.98,839.98,839.98
		c463.925,0,840.02-376.079,840.02-839.98C1740,436.094,1363.905,60.02,899.98,60.02z M899.988,1247.544
		c-191.9,0-347.545-155.664-347.545-347.544c0-191.936,155.645-347.545,347.545-347.545c191.893,0,347.569,155.609,347.569,347.545
		C1247.557,1091.88,1091.883,1247.544,899.988,1247.544z"/>
	<path fill="#734543" d="M900.009,97.689c-84.367,0-167.753,13.238-247.841,39.325l150.658,463.833
		c31.382-10.221,64.197-15.42,97.179-15.42L900.009,97.689z"/>
	<path fill="#492426" d="M715.112,645.541c26.717-19.398,56.34-34.486,87.714-44.692L652.168,137.015
		c-80.15,26.041-155.383,64.374-223.675,113.964L715.112,645.541z"/>
	<path fill="#734543" d="M600.844,997.202c-42.115-129.566,4.032-271.58,114.267-351.662L428.492,250.979
		c-282.102,204.913-399.233,565.39-291.45,896.973L600.844,997.202z"/>
	<path fill="#492426" d="M137.042,1147.95c107.685,331.616,414.285,554.362,762.966,554.362
		c442.357,0,802.312-359.955,802.312-802.314c0-442.399-359.955-802.309-802.312-802.309l-0.004,487.738
		c173.784,0,314.568,140.858,314.568,314.573c0,173.786-140.784,314.568-314.569,314.568c-136.28,0-257.067-87.756-299.16-217.365
		L137.042,1147.95z"/>
	<text transform="matrix(1 0 0 1 1233.0918 1221.9229)" fill="#FFFFFF" font-family="'ChangaOne'" font-size="88.6131">70%</text>
	<text transform="matrix(1 0 0 1 267.105 778.8223)" fill="#FFFFFF" font-family="'ChangaOne'" font-size="88.6131">20%</text>
	<text transform="matrix(1 0 0 1 534.3491 306.8779)" fill="#FFFFFF" font-family="'ChangaOne'" font-size="88.6131">5%</text>
	<text transform="matrix(1 0 0 1 744.2056 251.7183)" fill="#FFFFFF" font-family="'ChangaOne'" font-size="88.6131">5%</text>
	<path fill="#826762" d="M899.998,557.848c-188.916,0-342.146,153.2-342.146,342.146c0,188.811,153.229,342.164,342.146,342.164
		c188.838,0,342.155-153.354,342.155-342.164C1242.152,711.048,1088.836,557.848,899.998,557.848z M899.998,1218.523
		c-175.87,0-318.519-142.742-318.519-318.529c0-175.89,142.648-318.519,318.519-318.519c175.789,0,318.519,142.629,318.519,318.519
		C1218.517,1075.781,1075.786,1218.523,899.998,1218.523z"/>
	<path fill="#734543" d="M899.998,97.97c-442.948,0-802.024,359.076-802.024,802.024c0,442.959,359.076,802.036,802.024,802.036
		c442.951,0,802.027-359.077,802.027-802.036C1702.024,457.046,1342.948,97.97,899.998,97.97z M899.998,1675.365
		c-428.209,0-775.368-347.15-775.368-775.371c0-428.214,347.158-775.367,775.368-775.367c428.221,0,775.364,347.152,775.364,775.367
		C1675.361,1328.215,1328.219,1675.365,899.998,1675.365z"/>
	<g>
		<polygon fill="#826762" points="163.848,1145.008 207.751,1157.753 553.417,1047.939 577.689,1012.717 577.682,1012.694 
			163.666,1144.399 		"/>
		<polygon fill="#4E2924" points="163.48,1144.047 577.934,1012.447 577.496,1011.095 531.762,979.268 184.693,1089.291 
			163.425,1143.874 		"/>
		<polygon fill="#58312D" points="577.604,1011.052 560.195,998.939 171.558,1122.537 163.097,1144.25 163.152,1144.424 
			578.031,1012.405 		"/>
		<polygon fill="#826762" points="442.448,274.095 444.602,319.751 660.503,611.196 701.679,622.745 701.699,622.73 
			442.947,273.717 		"/>
		<polygon fill="#4E2924" points="443.22,273.437 702.01,622.886 703.149,622.041 718.453,568.45 501.902,275.758 443.366,273.328 
					"/>
		<polygon fill="#58312D" points="703.225,622.129 709.06,601.733 466.186,274.109 442.904,273.14 442.757,273.247 702.086,622.976 
					"/>
		<polygon fill="#826762" points="663.673,161.872 651.404,205.902 765.025,550.344 800.499,574.222 800.522,574.214 
			664.266,161.671 		"/>
		<polygon fill="#4E2924" points="664.617,161.481 800.779,574.464 802.118,574.011 833.46,527.937 719.615,182.094 
			664.788,161.425 		"/>
		<polygon fill="#58312D" points="802.163,574.12 814.105,556.588 686.214,169.332 664.408,161.113 664.238,161.171 
			800.823,574.573 		"/>
		<polygon fill="#826762" points="902.652,122.639 877.211,160.598 877.124,523.299 903.327,557.096 903.353,557.095 
			903.29,122.638 		"/>
		<polygon fill="#4E2924" points="903.683,122.566 903.519,557.414 904.933,557.411 949.146,523.469 949.46,159.379 
			903.864,122.567 		"/>
		<polygon fill="#58312D" points="904.94,557.526 921.785,544.605 921.734,136.776 903.603,122.141 903.423,122.141 
			903.528,557.528 		"/>
	</g>
</g>
</svg>
