<?xml version="1.0" encoding="utf-8"?>
<!-- Generator: Adobe Illustrator 16.0.0, SVG Export Plug-In . SVG Version: 6.00 Build 0)  -->
<!DOCTYPE svg PUBLIC "-//W3C//DTD SVG 1.1//EN" "http://www.w3.org/Graphics/SVG/1.1/DTD/svg11.dtd">
<svg version="1.1" id="template_1_" xmlns="http://www.w3.org/2000/svg" xmlns:xlink="http://www.w3.org/1999/xlink" x="0px"
	 y="0px" width="3240px" height="2160px" viewBox="0 0 3240 2160" enable-background="new 0 0 3240 2160" xml:space="preserve">
<g>
	<linearGradient id="SVGID_1_" gradientUnits="userSpaceOnUse" x1="1016.7378" y1="476.7417" x2="2223.2554" y2="1683.2592">
		<stop  offset="0" style="stop-color:#D5BBAE"/>
		<stop  offset="1" style="stop-color:#F4CB93"/>
	</linearGradient>
	<path fill="url(#SVGID_1_)" d="M1619.982,226.873c-471.169,0-853.127,381.958-853.127,853.127s381.958,853.127,853.127,853.127
		c471.192,0,853.167-381.958,853.167-853.127S2091.174,226.873,1619.982,226.873z M1619.99,1432.988
		c-194.905,0-352.988-158.104-352.988-352.988c0-194.94,158.083-352.988,352.988-352.988c194.897,0,353.012,158.048,353.012,352.988
		C1973.002,1274.884,1814.888,1432.988,1619.99,1432.988z"/>
	<path fill-rule="evenodd" clip-rule="evenodd" fill="#734543" d="M1620.011,265.133c-85.689,0-170.373,13.443-251.719,39.942
		l153.021,471.087c31.87-10.375,65.198-15.66,98.694-15.66L1620.011,265.133z"/>
	<path fill-rule="evenodd" clip-rule="evenodd" fill="#492426" d="M1432.225,821.561c27.128-19.706,57.213-35.025,89.088-45.398
		l-153.021-471.087c-81.408,26.451-157.821,65.375-227.179,115.749L1432.225,821.561z"/>
	<path fill-rule="evenodd" clip-rule="evenodd" fill="#734543" d="M1316.16,1178.717c-42.77-131.587,4.095-275.823,116.064-357.156
		l-291.112-400.737c-286.519,208.122-405.477,574.235-296.008,911.004L1316.16,1178.717z"/>
	<path fill-rule="evenodd" clip-rule="evenodd" fill="#492426" d="M845.104,1331.828
		c109.367,336.803,420.769,563.041,774.906,563.041c449.288,0,814.868-365.58,814.868-814.87
		c0-449.32-365.58-814.866-814.868-814.866l-0.004,495.369c176.505,0,319.498,143.062,319.498,319.498
		c0,176.508-142.992,319.498-319.498,319.498c-138.412,0-261.086-89.141-303.846-220.78L845.104,1331.828z"/>
	<text transform="matrix(1 0 0 1 1958.2871 1406.9629)" fill="#FFFFFF" font-family="'ChangaOne'" font-size="90">70%</text>
	<text transform="matrix(1 0 0 1 977.1904 956.9185)" fill="#FFFFFF" font-family="'ChangaOne'" font-size="90">20%</text>
	<text transform="matrix(1 0 0 1 1248.6201 477.5918)" fill="#FFFFFF" font-family="'ChangaOne'" font-size="90">5%</text>
	<text transform="matrix(1 0 0 1 1461.7632 421.5693)" fill="#FFFFFF" font-family="'ChangaOne'" font-size="90">5%</text>
</g>
<path fill="#826762" d="M1620,732.495c-191.87,0-347.5,155.6-347.5,347.5c0,191.763,155.629,347.51,347.5,347.51
	c191.791,0,347.5-155.747,347.5-347.51C1967.5,888.095,1811.79,732.495,1620,732.495z M1620,1403.505
	c-178.618,0-323.5-144.976-323.5-323.51c0-178.638,144.881-323.5,323.5-323.5c178.535,0,323.5,144.862,323.5,323.5
	C1943.5,1258.529,1798.534,1403.505,1620,1403.505z"/>
<path fill="#734543" d="M1620,265.414c-449.881,0-814.581,364.7-814.581,814.581c0,449.891,364.7,814.591,814.581,814.591
	c449.882,0,814.581-364.7,814.581-814.591C2434.581,630.114,2069.882,265.414,1620,265.414z M1620,1867.505
	c-434.912,0-787.5-352.588-787.5-787.51c0-434.916,352.588-787.5,787.5-787.5c434.921,0,787.5,352.584,787.5,787.5
	C2407.5,1514.917,2054.921,1867.505,1620,1867.505z"/>
<polygon fill="#826762" points="872.333,1328.834 916.917,1341.785 1268,1230.25 1292.646,1194.489 1292.638,1194.466 
	872.139,1328.226 "/>
<polygon fill="#4E2924" points="871.954,1327.873 1292.891,1194.211 1292.453,1192.841 1246,1160.5 893.5,1272.25 871.898,1327.7 
	"/>
<polygon fill="#58312D" points="1292.561,1192.798 1274.881,1180.481 880.159,1306.03 871.57,1328.077 871.625,1328.25 
	1293,1194.167 "/>
<polygon fill="#826762" points="1155.286,444.299 1157.478,490.674 1376.756,786.677 1418.574,798.406 1418.594,798.391 
	1155.798,443.917 "/>
<polygon fill="#4E2924" points="1156.071,443.628 1418.917,798.547 1420.07,797.689 1435.618,743.263 1215.677,445.989 
	1156.217,443.52 "/>
<polygon fill="#58312D" points="1420.146,797.778 1426.071,777.061 1179.396,444.314 1155.754,443.332 1155.608,443.439 
	1418.994,798.637 "/>
<polygon fill="#826762" points="1379.977,330.318 1367.516,375.042 1482.915,724.876 1518.947,749.126 1518.97,749.118 
	1380.583,330.117 "/>
<polygon fill="#4E2924" points="1380.934,329.927 1519.228,749.368 1520.592,748.915 1552.422,702.109 1436.793,350.861 
	1381.105,329.871 "/>
<polygon fill="#58312D" points="1520.637,749.023 1532.759,731.209 1402.866,337.893 1380.725,329.546 1380.553,329.604 
	1519.272,749.477 "/>
<polygon fill="#826762" points="1622.705,290.468 1596.854,329.031 1596.766,697.407 1623.381,731.73 1623.406,731.729 
	1623.344,290.467 "/>
<polygon fill="#4E2924" points="1623.736,290.396 1623.573,732.048 1625.011,732.045 1669.918,697.577 1670.233,327.787 
	1623.917,290.397 "/>
<polygon fill="#58312D" points="1625.02,732.162 1642.122,719.046 1642.07,304.836 1623.657,289.97 1623.477,289.97 
	1623.581,732.166 "/>
<path display="none" fill="#492426" d="M604.32,1306.894c-0.076-5.014-0.285-9.221-0.619-12.5c-0.01-0.072-0.018-0.143-0.027-0.213
	c-0.293-2.164-1.75-5.982-8.221-7.27c-2.016-0.398-4.188-0.604-6.459-0.604c-0.432,0-0.871,0.006-1.314,0.021
	c-2.781,0.092-5.408,0.475-7.805,1.139c-2.496,0.695-4.188,1.764-5.334,2.932c-1.102-0.922-2.17-1.609-3.236-2.088
	c-0.039-0.018-0.078-0.035-0.119-0.053c-1.588-0.676-3.578-1.145-6.084-1.43c-1.719-0.197-3.459-0.297-5.168-0.297
	c-0.428,0-0.855,0.006-1.285,0.018c-2.258,0.066-4.324,0.314-6.15,0.74c-1.209,0.281-2.221,0.666-3.063,1.119
	c-1.078-0.615-2.41-1.145-4.055-1.521c-2.4-0.551-5.012-0.83-7.764-0.83c-0.389,0-0.783,0.004-1.182,0.016
	c-3.215,0.092-6.25,0.555-9.02,1.383c-4.338,1.295-6.412,3.588-7.393,5.658c-4.92-3.922-11.033-6.219-18.244-6.844
	c-0.975-0.086-1.951-0.129-2.902-0.129c-7.098,0-13.482,2.354-18.979,6.994c-0.895,0.758-1.74,1.543-2.533,2.357
	c-0.678-1.801-1.477-3.26-2.43-4.449c-0.012-0.018-0.025-0.035-0.039-0.051c-2.684-3.285-5.795-4.252-7.949-4.488
	c-1.545-0.164-3.076-0.248-4.555-0.248c-7.957,0-14.906,2.383-20.652,7.084c-0.199,0.16-0.395,0.326-0.588,0.492
	c-0.789-2.262-2.383-4.438-5.588-5.721c-3.244-1.301-7.236-1.301-15.982-1.301c-9.053,0-16.834,0.58-20.395,7.705
	c-0.01,0.021-0.021,0.041-0.033,0.063c-0.404,0.834-1.324,2.729-1.961,8.168c-0.018-5.514-0.215-8.889-2.115-11.666
	c-2.805-4.105-7.199-4.154-11.076-4.195h-0.139c-0.436-0.006-0.85-0.01-1.236-0.01c-2.895,0-6.857,0-9.852,3.021
	c-0.803,0.811-1.396,1.691-1.863,2.652c-0.248-0.211-0.504-0.418-0.77-0.619c-4.461-3.396-10.951-5.119-19.287-5.119
	c-6.498,0-10.791,0-14.357,1.32c-4.604,1.703-6.67,5.088-7.777,8.377c-3.576-5.621-9.029-9.844-17.891-9.844
	c-5.85,0-10.211,1.758-13.543,4.57c-1.006-1.121-2.334-2.111-4.088-2.85c-3.729-1.574-8.293-1.574-16.574-1.574
	c-8.275,0-12.834,0-16.553,1.58c-0.568,0.242-1.09,0.51-1.572,0.801c-2.588-1.318-5.625-1.611-9.295-1.611
	c-8.508,0-16.008,2.641-20.574,7.242c-0.994,1.002-1.85,2.088-2.559,3.246c-3.545-6.385-9.156-11.404-18.818-11.404
	c-7.152,0-12.08,2.627-15.621,6.598c-0.406-1.117-1.049-2.203-2.051-3.211c-3.1-3.113-7.4-3.27-14.164-3.27
	c-1.408,0-3.004,0.014-4.814,0.029c-6.1,0.002-11.621,0.27-15.66,2.631c-0.455-0.332-0.959-0.639-1.518-0.916
	c-3.285-1.639-7.281-1.715-14.643-1.715c-9.498,0-18.24,0.83-20.871,10.867c-0.004,0.016-0.008,0.031-0.012,0.047
	c-1.316,5.166-1.592,13.436-1.592,19.461c0,9.459,0.527,16.021,1.615,20.063c0.908,3.375,1.693,6.293,4.529,8.4
	c2.869,2.133,26.314,16.109,28.793,17.941c2.514,1.898,5.473,1.898,8.604,1.898c3.402,0,6.682-0.23,9.109-2.641
	c2.494-2.477,2.309-3.834,1.988-7.861c1.535,3.598,10.041,9.848,22.754,10.547c6.719,0.369,10.207,0,13.01-1.271
	c2.303,1.227,5.08,1.227,8.162,1.227c2.822,0,5.242,0,7.551-1.66c1.537-1.137,2.441-2.59,3.014-4.121
	c0.656,1.65,1.619,3.143,3.297,4.225c2.295,1.549,4.738,1.557,7.568,1.557c0.447,0.004,0.873,0.008,1.264,0.008
	c1.654,0,4.25,0,6.531-1.248c2.539,1.252,5.482,1.326,8.084,1.326c6.166,0,11.965-1.529,16.348-4.32
	c2.166-1.4,3.932-3.057,5.316-4.908c0.459,2.514,1.525,5.121,3.955,6.965c2.773,2.102,5.963,2.102,8.527,2.102
	c2.547,0,5.715,0,8.475-2.139c0.279-0.234,0.539-0.428,0.779-0.678c2.738,2.891,6.711,2.893,10.004,2.893
	c2.693,0,5.246,0,7.563-1.709c1.516-1.137,2.414-2.57,2.99-4.08c0.639,1.652,1.592,3.102,3.252,4.186
	c2.344,1.604,4.928,1.604,7.656,1.604c3.004,0,6.621,0,9.268-2.385c0.803,0.549,1.705,1.014,2.781,1.367
	c3.15,1.063,7.094,1.063,13.076,1.063c8.131,0,13.811-2.104,17.541-5.156c2.543,3.441,6.785,5.156,12.645,5.156
	c5.496,0,9.484,0,12.805-1.525c0.643-0.287,1.26-0.627,1.785-1.002c1.146,0.855,2.461,1.461,3.988,1.85
	c2.586,0.678,5.674,0.678,9.918,0.678h0.818c1.197,0,2.279,0,3.246,0c6.193,0,10.305,0,13.131-2.879
	c0.852-0.865,1.389-1.744,1.76-2.711c1.65,1.287,3.482,2.365,5.49,3.283c3.621,1.641,7.691,2.494,12.145,2.533h0.316
	c4.107,0,7.959-0.658,11.48-1.895c1.463-0.434,3.613-1.484,5.088-4.16c3.621,2.914,7.93,4.83,12.904,5.658
	c1.709,0.266,3.402,0.43,5.027,0.43l0,0c5.814,0,11.133-1.809,15.781-5.313c1.305-1.031,2.521-2.09,3.6-3.287
	c0.746,3.377,1.893,6.139,4.762,7.355c1.916,0.814,4.398,1.191,7.775,1.191c0.65,0,1.354-0.018,2.055-0.051
	c3.072-0.139,6.359-0.42,8.656-2.076c2.227,1.648,5.43,1.941,8.406,2.09c0.703,0.037,1.404,0.057,2.055,0.057
	c3.309,0,5.73-0.408,7.646-1.293c0.033-0.014,0.066-0.029,0.1-0.045c1.916-0.93,2.936-2.58,3.516-4.301
	c0.367,0.404,0.729,0.797,1.115,1.158c1.734,1.744,3.119,2.756,4.408,3.367c1.09,0.455,2.402,0.77,4.365,0.91
	c1.08,0.113,2.229,0.17,3.365,0.17c0.393,0,0.789-0.004,1.172-0.018c1.625-0.051,3.168-0.178,4.553-0.459
	c2.975-0.547,28.801-15.701,30.525-16.658c3.014-1.674,5.203-3.219,6.422-5.658c0.088-0.174,0.166-0.35,0.236-0.529
	c0.482-1.23,0.787-2.848,1.107-8.273c0.215-3.662,0.363-7.939,0.439-12.713C604.394,1316.675,604.394,1311.786,604.32,1306.894z
	 M465.011,1316.423c0.303-0.049,0.613-0.092,0.928-0.129c-0.197,0.143-0.396,0.289-0.592,0.439
	c-0.506,0.063-1.049,0.117-1.635,0.152C464.134,1316.673,464.564,1316.521,465.011,1316.423z"/>
<rect x="2362.206" y="360.917" display="none" fill="#826762" width="29.229" height="317.64"/>
</svg>
